<?xml version="1.0" encoding="UTF-8"?>
<svg version="1.1" viewBox="0 0 1447 2048" width="1280" height="1280" xmlns="http://www.w3.org/2000/svg">
<path transform="translate(706,456)" d="m0 0h17l17 3 12 4 16 8 14 11 8 8 10 14 8 17 4 15 1 9 5-1h20l7 4 3 5v8l-4 6-4 3-4 1-17 1-3 1 1 10h2l1 8v24l-1 9h-2l1 4 22 1 11 2v2l9 2 3 1v2l5 1 4 3 3-3 3-1 3-3 4-2h4v-2l9-2h21l-1-4v-7h-2v-28h2l1-13 3-10 6-9 6-11 2-1 3-5 5-5 2-3h3l2-5h2v-2l4-3h2l1-3 8-4h3v-2l7-3 7-1v-2l15-3 1-1 10-1h15l12 1v2l11 1 2 1v2l8 1 14 7v2l4 1 8 7 5 3 4 4 3 5 9 10 2 3 1 7h2l4 12 2 5 2 9 1 2 1 17-1 14-2 6-1 4h16l18 2v2l7 1 5 2v2l6 2 3 3v2l4 1 7 8 3 6 1 5h2l5 13 1 7v44l-2 11h-2l-1 5-4 6-2 1-3 5h-2l-1 4-1 8 2 16 3 1 2 5 3 3 4 9v2h2l3 13h2l4 15 2 5 2 10 1 1 1 9v111h2v72l-2 7-3 9-6 11-1 2h-2l-2 5-5 5h-2l-1 3-7 4-5 4-13 5h-27v51l-1 1 1 181-1 2v17l1 1v43l-6 20h-2l-1 4-2 4h-2l-1 4-3 1-1 3-7 6-5 5-10 3v2l-13 3h-21l-15-3-8-5v-2l-5-2-8-7-1-3-3-2-3-6-2-1-2 5-7 8-5 5-5 3h-2v2l-16 6-9 2-14 1-16-3-3-1v-2l-5-1-6-3-7-6v-2l-4-2-4-5-4-7v-4h-2l-3-9v-4h-2l-1-6v-287l1-13h-9l-10-2v-2l-7 1-6 3-6 2-7 1h-20v298l-3 13h-2l-1 5-4 7-10 11-4 4-6 3-3 3-5 2h-3v2l-12 3h-18l-15-3-5-3-4-2-1-2-9-5-3-3-2-1-3-5-4-6-3 5-3 3-2 3-4 2-5 5-9 6-10 4-8 2h-20l-14-3v-2l-5-1-6-3-7-6v-2l-4-2-6-7-2-6h-2l-4-13v-7h-2l-1-7-1-292h-26l-9-3-8-2v-2h-7l-2 4-3 2h-5v300l-2 7-4 13h-2l-2 6-10 11-5 2v2l-10 6h-4v2l-8 2-8 1h-13l-16-3-11-6-8-6v-2h-2v-2l-3-1-7-9v-3l-3 3-5 7h-2l-2 4-3 1v2l-8 5h-2v2l-11 5-12 3h-20l-13-3v-2l-6-2-8-6-10-10-6-9-2-5v-3h-2l-3-17-1-296-10 2h-9l-9-1v-2l-8-1-8-4v-2l-5-2-3-2v-2l-4-2-7-8-1-4h-2l-3-9v-4h-2l-2-11v-24h-2v-124-2-6l1-1 1-32 2-10h2l1-9 2-8h2l1-8 5-13h2l2-8h2l1-6 3-6h2l2-9 1-1v-16l-3-3v-3l-4-2-4-10-2-7-1-7-1-1v-41l2-6 2-9h2l2-9 6-9h2l2-5 6-5h2l1-3 8-5 8-1v-2l18-2h13l-2-17v-18l2-12h2l1-8 3-10h2l1-5 3-6 2-2 4-6h2l2-6 7-6 1-2 5-3h2l1-3 5-2 1-3 7-4h2v-2l14-5 9-3 8-1 1-1h31l1 1 17 3v2l6 1 6 3v2l5 1 9 6 3 3v2l4 1 7 6 6 8 5 6 1 3 2 1 4 7 1 6h2l3 12v6h2l1 10v23l-2 7-2 4 25 1 8 2v2l9 3 3 3 3 1v2l5-1 7-6 5-2h3v-2l13-2h14l4 1-1-6v-35l1-7h-29l-8-4-3-5v-9l4-6 6-3 11-1h20v-10l3-17 5-14 8-15 9-11 9-9 10-7 15-8 16-5z" fill="#1E3745"/>
<path transform="translate(995,881)" d="m0 0 49 1 2 6 2 15 4 17 3 7 4 10 9 16 4 5 7 8 5 5 6 4v2l4 1 11 7 1 24v47l-1 89v243l-4 10-8 12-5 3h-3v2l-9 3h-11l-11-3v-2l-6-2-5-5-6-8-4-13-1-28v-243l1-26-5-9-5-4h-11l-5 4-4 7-1 4-1 153v143l-4 9-4 6-5 6h-2l-2 4-8 5-8 2h-14l-10-4-5-3v-2h-2l-5-5-5-11-1-4-1-338v-41l1-27 2-2 11-4h2v-2l6-4h2v-2l6-4 7-8 5-6 2-3h2l2-6 6-10 5-12 5-17 3-19z" fill="#EEE9C4"/>
<path transform="translate(706,882)" d="m0 0h21l17 1 4 26 6 18 7 15 5 8 6 8 4 5v2l4 2 13 11 12 6 1 5 1 15v72l-1 79v232l-3 10-12 14-6 2v2l-6 2h-16l-9-4-8-5-3-4v-2h-2l-4-8-3-7-1-13v-239l1-37 1-5-3-10-4-5-6-4h-7l-5 1v2h-2v2h-2l-1 4-2 7-1 20v276l-4 12-9 10-5 4-8 4-10 2h-12l-7-3-7-5-2-5h-2l-6-13-1-4-1-25v-378l2-4 5-2 11-6 11-8 7-8 6-8 1-3h2l2-5 6-12 6-16 2-9 2-7 2-14z" fill="#F6D45C"/>
<path transform="translate(400,881)" d="m0 0h36l11 1 3 22 2 7 2 12 3 8 8 17 3 8 9 17 2 4 4 2 1 2 1 57v326l-1 28-5 4-4 4-12 5h-3l1 6-6-1-6-5-7-11-2-6-1-20v-188l1-80 2-3-2-12-6-8-5-3h-10l-7 6-1 2h-2v3h-2l-1 6-7 4-9 3-5 2-2 141-1 148-1 3h-2l-2 5-3 3-9 6-6 1 2 9h-6l-11-7-3-5v-2h-2l-4-10-1-5v-56l1-333 1-14 3-1v-2l9-5 11-7 5-4 7-8 5-6 3-6h2l2-6 6-12 4-11 4-22 1-2 1-9z" fill="#62BDE0"/>
<path transform="translate(342,738)" d="m0 0h4l9 19 5 14 6 20 3 19 1 3 1 16v43l-1 12-2 8-4 17-3 7-4 10-6 11-5 6-11 8-14 7-13 5-5 5-1 12 2 6v77l-2 3h-16l-3-1v-2l-5-1-6-3-5-6-6-12-1-6v-149l1-25 1-8 2-6 3-12 3-8 5-11 5-12 6-10h2l2-5 9-10 4-3 4 6 4 10 1 7 4 21 2 14 1 19-1 14-4 15-4 13-4 10h-2l-2 5-5 5-3 5 1 13 3 5 4 2h10l6-3 5-6 4-9h2l3-9 5-12 4-15 2-6 2-10v-40l-1-3-2-25-2-9-3-8-3-11-6-14-4-9 1-3 11-6z" fill="#62BBDD"/>
<path transform="translate(639,739)" d="m0 0h2l1 5h2l7 19 4 13 3 9 2 12 2 9 2 20v41l-3 29-2 6-3 11-6 13-6 10-6 7-11 9-16 7-12 5-6 4-1 3v10l2 4 5 4v69l-1 3-9 4h-11l-12-5-9-11-4-10-1-7v-122l1-40 5-26 8-23h2l1-6 3-6 4-7h2l1-5 7-11 8-8h2l1-2 7 14 2 15 4 23 1 13v23l-2 13-6 19-6 11-6 9-3 3-1 2v9l2 10 4 1h8l6-3h3l2-4 4-3 3-6h2l3-9 5-10 2-6 3-8 2-10 1-1 2-23v-14l-2-32-1-2-2-19-3-11-3-9-2-9h-2l-3-9 1-5 13-7z" fill="#F4D35D"/>
<path transform="translate(1096,740)" d="m0 0h5l1 2 7 3v2l4 2 2 4-4 10-3 7-3 10-3 9-5 20-2 19v33l4 27 5 15 8 16 7 12 5 5v2l7 2h11l4-4 1-3v-11l-5-7v-2h-2v-3h-2v-2h-2l-6-13-3-11-2-6-1-6v-51l2-12 2-6 4-15 5-10 5 3 7 8v2l4 2 3 5v2h2l3 7v3h2l10 23 4 13 3 21 1 2v162l-3 13-3 8-6 7-8 4-5 2h-14l-6-3-1-2-1-73 1-2 6-2 2-3v-8l-1-3-11-6-8-3v-2l-9-3-11-8-6-5-9-12-4-7-6-15-3-16-1-1-2-19v-50l2-18 1-1 4-24 3-9 5-13 4-9h2l2-6z" fill="#EBE7C3"/>
<path transform="translate(1007,531)" d="m0 0h18l1 1 14 2 18 9v2l4 2 10 8 7 9v2h2l7 15 3 15v17l-2 13-5 13-3 6h-2l-2 5-7 8-7 6-5 2v2l-12 6-10 3-13 2-25-2-10-3-8-5-1-3-6-2-12-12-7-8-4-8-5-14-1-11v-14l4-16 5-13 6-8 9-10 13-10 10-5 9-2h7z" fill="#EFEAC5"/>
<path transform="translate(410,531)" d="m0 0h21l18 6 11 6v2l4 1 5 3 7 8 3 4v2h2l3 9h2l5 12 2 8v24l-6 20-6 11-2 1-4 7-8 8-10 7-10 5-17 4-2 1h-9l-20-4-10-4-8-4-9-6-7-8-3-3-5-9-8-15-2-11v-21l2-12 5-11 2-4h2l2-5 2-4 9-9 6-5h2v-2l16-8z" fill="#62BEE0"/>
<path transform="translate(796,739)" d="m0 0 4 1 2 1v2l6 2 6 5-1 7-3 7-6 16-6 23-2 15-1 2v40l2 15 3 16 7 19 8 13 4 7 8 7 9 4h6l5-6 1-3v-15h-2l-6-8-6-9-6-15-3-16-1-23v-12l4-34 6-17 4-6 7 6 7 10 6 10 6 12 6 18 2 5 5 26 2 17 3 64 1 65v24l-4 14-7 9-6 4-11 4h-14l-2-2-2-26-1-47 2-4 5-2-1-12-5-6-5-3-8-3-7-4-11-7-9-7-10-14-6-13-4-16-1-1-2-20-1-27v-30l2-23 1-7 2-5 4-17 5-12 8-16z" fill="#F5D55F"/>
<path transform="translate(780,573)" d="m0 0 5 1 4 10 3 21-3 21-5 12-6 10h-2l-2 4-13 13-10 6-10 4-9 3-8 1h-10l-17-3-13-4-8-4-3-3-10-8-10-13-7-14-4-16v-18l2-16 2-2 38-1 66-3z" fill="#F7D55B"/>
<path transform="translate(452,916)" d="m0 0 2 3 5 13 2 7h2l5 10 7 9 5 5 9 8 6 4 7 4 8 4 1 6v399l-5 13-2 4-5 5-8 5-7 2h-13l-11-4-2-2h3l-1-6 10-4 6-3h2l1-3 4-3 1-39v-330l-1-42-7-8-9-17-3-8-8-17-3-8z" fill="#428095"/>
<path transform="translate(761,944)" d="m0 0 4 5 7 9 4 5v2l4 2 13 11 12 6 1 5 1 15v72l-1 79v232l-3 10-12 14-6 2v2l-6 2h-16l-9-4-2-2 2-4 11-4 8-6 5-5 1-5 1-293v-113l-5-2v-2h-2l-6-9-4-7-4-9v-6h2z" fill="#B7943F"/>
<path transform="translate(1061,943)" d="m0 0 4 5 7 10 7 8 5 5 6 4v2l4 1 11 7 1 24v47l-1 89v243l-4 10-8 12-5 3h-3v2l-9 3h-11l-11-3v-2l-2-1h3v-7l12-2v-2l5-3 4-4 2-10v-404l-5-5-7-14v-7l-5-8z" fill="#B1AD85"/>
<path transform="translate(407,1085)" d="m0 0 1 4-1 291-3 13-5 9-6 7-12 7-7 2h-14l-2-2h3l-2-9 10-4 5-4h2l2-5 1-2h2l1-151 2-132 1-9 6-4 11-3 4-2z" fill="#428095"/>
<path transform="translate(707,483)" d="m0 0h15l14 3 12 5 11 7 10 9 9 13 6 14 2 12-2 1-71 3-36 2h-32v-8l3-14 8-16 7-9 7-7 13-8 13-5z" fill="#F5D45B"/>
<path transform="translate(1e3 1090)" d="m0 0h1v296l-4 9-4 6-5 6h-2l-2 4-8 5-8 2h-14l-6-2 3-1v-10l11-3 6-4 3-1 2-4 4-7 1-11 1-114 1-147 1-17 5-3 11-2 2 7z" fill="#B1AD85"/>
<path transform="translate(703,1083)" d="m0 0 1 3-1 4-1 20v276l-4 12-9 10-5 4-8 4-10 2h-6l-2-1-1-8h2l2-4 9-6 5-5 4-6 1-251 2-26 3-7 6-3 8 1 2-16z" fill="#B79440"/>
<path transform="translate(838,777)" d="m0 0 7 6 7 10 6 10 6 12 6 18 2 5 5 26 2 17 3 64 1 65v24l-4 14-7 9-6 4-11 4h-14l-2-2-2-26v-37h1l2 52 1 2 8-1 7-6 4-5 4-11h2l-1-9-1-2-1-72-2-32-5-26-3-27-5-17-6-11-8-11-3-5v-3h-4l1-16 6-17z" fill="#B7933E"/>
<path transform="translate(302,776)" d="m0 0 4 4 5 12 1 7 2 9 1 14v14h-2l-1 2-5 3-9 9-6 4-2 1-1 4-1 15-1 1h-5l-1-9h-1l-1 16-1 4v64l1 13-1 9v28l1 42 3 15 3 6-7-1-6-3-5-6-6-12-1-6v-149l1-25 1-8 2-6 3-12 3-8 5-11 5-12 6-10h2l2-5 9-10z" fill="#64BCDD"/>
<path transform="translate(1142,783)" d="m0 0 7 6v2l4 2 3 5v2h2l3 7v3h2l10 23 4 13 3 21 1 2v162l-3 13-3 8-6 7-8 4-5 2h-14l-6-3-1-2-1-73 1-2h5l-4 1v73l7-4 8-5 6-10 2-7v-163l-2-15-7-23-5-12-10-19-1-7 5-6h2l1-2z" fill="#B2AD85"/>
<path transform="translate(697,725)" d="m0 0h29l20 2 12 3 6 3-3 11-3 7-7 23-4 17-3 23h-51l-2-14v-8h-2l-4-21-7-22-3-5-4-10v-3l9-3z" fill="#F5D35B"/>
<path transform="translate(1e3 725)" d="m0 0h23l20 2 13 4 4 2-6 22h-2l-1 8-2 8h-2l-1 9-7 34-4 1-46-1-1-1-3-27-2-10-11-33v-3h-2l-2-5v-4l16-4z" fill="#EBE6C2"/>
<path transform="translate(411,724)" d="m0 0h25l22 4 8 3-1 8-2 7h-2l-1 9-7 24-5 22-2 12-1 1-46 1-3-17-3-15-7-24-3-8-3-9-4-8v-3l13-4z" fill="#61BBDE"/>
<path transform="translate(314,814)" d="m0 0h1l3 20 1 19-1 14-4 15-4 13-4 10h-2l-2 5-5 5-3 5v12l-2 1v5l2 3-2 3-1 4h-3l-1 5-2 6-1-2-2 1v5l3 1 1-4 1-3 3 3 1-2 3 1-1 11 1-1h2l1-2 4-1 3-4 9-3 3 1-9 4-4 4-1 12 2 6v77l-2 3h-16l-3-1 1-3-4-8-2-12-1-42v-28l1-14-1-16v-56l1-5 1-15h3v9l5-1 2-21h3l6-4h2l2-5 7-6h3l1-4v2h2z" fill="#5AADCB"/>
<path transform="translate(498,738)" d="m0 0 7 2 13 10-2 6h-2l-1 6-10 30-2 13-2 25v37l2 18 7 21 6 10 5 9v2h2l4 7v17l-1 7-5-2v-2l-5-2-4-3-3-1v-2l-5-2-7-7-7-9-6-15-4-14-3-22v-60l1-14 3-16 4-15 4-13 8-16z" fill="#61BADC"/>
<path transform="translate(939,739)" d="m0 0h3l9 20 8 24 4 20 2 18v51l-4 26-7 21-6 11h-2l-2 5-6 7-5 4h-2l-1 3-4 3h-2v2l-7 3h-4v-19l7-12 12-24 4-11 3-16 1-2 1-13v-18l-1-15-1-3-3-31-5-17-8-21-1-4 7-6 4-2h3v-2z" fill="#E7E4C0"/>
<path transform="translate(796,739)" d="m0 0 4 1 2 1v2l6 2 6 5-1 7-3 7-6 16-6 23-2 15-1 2v40l2 15 3 16 7 19 8 13 4 7 8 7 9 4h6l3-2-2 4h-9l-3-1v2l9 1-4 2-2-1v2l3 1-1 2h-4l-1 3h3v2l-6 3 3 3-5-1-9-5-11-7-9-7-10-14-6-13-4-16-1-1-2-20-1-27v-30l2-23 1-7 2-5 4-17 5-12 8-16z" fill="#F1D15E"/>
<path transform="translate(324,655)" d="m0 0h7l7 9 5 6 5 4 2 5 6 4v2l8 4v2l5 2 8 5v2l-9 4-31 9-16 8-9 7-4 2-2 4-13 13-2-1v-2h-2l-6-8-5-8-1-4-1-14v-15l1-11 6-11 7-9 5-4 11-4h11z" fill="#5AADCB"/>
<path transform="translate(1107,656)" d="m0 0 27 1 8 3 10 6 4 5v2h2l5 10 2 12v17l-1 14-2 6-5 8-5 5-4 1-2-6-3-1-5-5-11-10-10-6-10-5-31-9-12-3-6-2 3-3 11-6 8-5h2v-2l8-7 11-12z" fill="#B3AE85"/>
<path transform="translate(626,656)" d="m0 0 4 2 6 10 10 10 6 5 3 3 11 7 6 5-3 3-22 8-15 4-11 5h-3v2l-8 5-10 9-5 5-5 6-1 3-3-1v-2l-4-2-6-8-3-10-1-1v-36l3-9 5-9 3-1v-3l14-8 4-1z" fill="#F2D463"/>
<path transform="translate(805,656)" d="m0 0 30 1 10 5 10 9 5 8 3 12v29l-2 11-5 9-5 6-5 1-3-9h-2l-7-8-10-8-4-2v-2l-5-1-7-4-19-5-16-4-17-4v-2l9-4 14-9h2l1-3 8-7 4-5 2-1 1-3h2l2-4z" fill="#EEC652"/>
<path transform="translate(1028,533)" d="m0 0h8l11 4 11 6v2l4 2 10 8 7 9v2h2l7 15 3 15v17l-2 13-5 13-3 6h-2l-2 5-7 8-7 6-5 2v2l-12 6-10 3-13 2-25-2-10-3-8-5-1-3h2l1-4 1-1 19-1 16-3 12-5 7-2v-2l5-3h2v-2l6-5 1-2h2l2-5 4-7 4-8 2-10v-17l-2-11-6-13-6-8-11-11-12-8z" fill="#B2AD85"/>
<path transform="translate(440,535)" d="m0 0 9 2 11 6v2l4 1 5 3 7 8 3 4v2h2l3 9h2l5 12 2 8v24l-6 20-6 11-2 1-4 7-8 8-10 7-10 5-17 4-2 1h-9l-20-4-10-4-2-2 2-1 1-5 1-1 21-3 17-4 12-7 6-4 7-8 1-2h2l2-6 4-8 2-6 1-9v-18l-3-16-8-13-8-10-2-10z" fill="#428095"/>
<path transform="translate(780,573)" d="m0 0 5 1 4 10 3 21-3 21-5 12-6 10h-2l-2 4-13 13-10 6-10 4-9 3-8 1h-10l-17-3-13-4-8-4 2-5 6-1h13l11-1 21-6 9-5h2v-2l5-3 5-5 6-8 5-9 4-12v-27l-2-9h-13v-1z" fill="#B7943E"/>
<path transform="translate(925,656)" d="m0 0h5l4 8 3 3v3l3 1 7 8 6 4 3 3 5 3v2l5 2 10 6-4 2-24 8-18 5-8 4h-2v2l-9 5-5 5h-2v2l-6 4-7 10-2 3h-2l1-5 5-14 1-6 1-27-2-16v-6h-2l-1-10 7-5h5v-2l4-1z" fill="#EBE7C2"/>
<path transform="translate(509,655)" d="m0 0 25 1 10 3 6 5 1 4-2 8-3 4-1 4v33l1 17-4-1-5-5-6-5-6-3v-2l-6-2-8-4-25-7-10-2-7-2-9-2v-2l10-4 12-9 1-2h3v-2h2l1-3 10-10 6-7 2-4z" fill="#428095"/>
<path transform="translate(286,957)" d="m0 0 4 3 1-2 3 1-1 11 1-1h2l1-2 4-1 3-4 9-3 3 1-9 4-4 4-1 12 2 6v77l-2 3h-16l-3-1 1-3-4-8-2-12-1-42v-28l2-14h2l2 6 3-1z" fill="#5AADCB"/>
<path transform="translate(628,678)" d="m0 0h9l8 2 1-2 6 5 3 3 11 7 6 5-3 3-22 8-15 4-11 5h-3v2l-8 5-10 9-5 5-3 2 1-5 1-42 2-3h2l1-3h5l1 4v8l3-1v-9l1-4h-2v-3l6-2 2 2v3l8-1-1 2 5 1v-5h-4v-2l-4-1 8-1z" fill="#F1C951"/>
<path transform="translate(744,883)" d="m0 0 3 2 1 11v9l3 1 3 10 1 6 3 5 3 10 3 3 4 8 1 3 5 1 2 3v5h2v2h2l5 5 6 5 3 1v2h3l1 4 6 1 2 4 4 2-2 9h2v392l-4 12-5 6-4 4-5 6-12 3-7 2-9 1-5-3-1-2-7-1v-3l-4-1 1-2 12 6 3 1h16l6-1v-2l7-4 2-3h2l2-5 4-4 3-10v-232l1-79v-72l-1-20-6-2-8-5-13-11-5-5-6-8-6-9-7-16-3-8-4-11-3-21z" fill="#26363C"/>
<path transform="translate(314,658)" d="m0 0h9l9 1 8 10 7 6v3l-11 1-24 1-5 2-3 1v5l-3 3-3 20-1 11-13 13-5-5-2-6-1-14v-15l1-11 5-9 3-1 1-3 8-7 9-4z" fill="#62BDDF"/>
<path transform="translate(1107,656)" d="m0 0 27 1 8 3 10 6 4 5v2h2l1 7-4 1-7-1-7-2v15l-1 5h-7l-10 1-9-3-8-3-5-1-3-8-9-2v-3l4-4 3-6 8-9z" fill="#ECE7C3"/>
<path transform="translate(805,656)" d="m0 0 30 1 10 5 10 9 3 7v3l-9-2-10-1-1 32-1 10-5 1-1-5h-3l-1-4-5-1-4-12v-15l3-3-11-3v-2h-7v2h-10l-3-3 4-5 2-1 1-3h2l2-4z" fill="#F3D35C"/>
<path transform="translate(938,680)" d="m0 0h6l2 2 7 1 3 3 5 3v2l5 2 10 6-4 2-24 8-18 5-8 4h-2v2l-9 5-5 5h-2v2l-6 4-7 10-2 3h-2l1-5 5-14 1-6 1-25h1l1 15 1-9 4-1 1-2 10-2 1-1 17-3 2-1 3-6 2-1-2-2h3l-1-3z" fill="#B3AF88"/>
<path transform="translate(857,676)" d="m0 0 3 3 3 12v29l-2 11-5 9-5 6-5 1-3-9h-2l-7-8 2-1 1-6 1-45 3-1 8 1 9 3z" fill="#B7933D"/>
<path transform="translate(851,792)" d="m0 0 5 1 9 17 1 7h2l4 8 1 13h2l3 6 3 31 2 8v5h-2l2 10 1 25 2 26v96l-4 5-3 7-5 1-2 4-5 1-4 4-3 1h-17l-6-2-1-7v-14l-2-10-1-39 1-7 5-6 2-6-2-8-5-2-11-4-3-3v-2l-5-1-5-2v-2h-2v-2l-5-1-6-6-4-2-3-7-1-4 4 4 4 5v2l4 2 11 8 11 6 5 3 7 3 6 5 2 3v12l-5 3-1 4 1 46 2 26 1 1h14l13-5 6-5 5-9 3-11v-24l-1-65-3-64-3-24-5-23-4-10-5-13-4-8z" fill="#26363C"/>
<path transform="translate(705,1082)" d="m0 0 2 1-2 9v62l1 33v199l-3 12-11 13-5 2-1 2-6 2-7 4h-13l-6-2 4-2h8l10-2 11-6 7-8h2l5-15v-276l1-20z" fill="#26363C"/>
<path transform="translate(509,655)" d="m0 0 25 1 10 3 6 5 1 4-2 8-3 4-7 2-6 1v3l-3 2h-17l-3-2h-2v-2l3-2-2-1 1-4h-13l-3-1 1-5 5-5 5-6 2-4z" fill="#61BCDE"/>
<path transform="translate(898,778)" d="m0 0h3l5 13 5 27 2 32-3 25-2 7h-1l-1-18-1-7-1-1-4-22-3-8-4-12-4-8v-2h-2l-2-9 2-3h2l1-4h2l2-4z" fill="#DDDBB9"/>
<path transform="translate(324,655)" d="m0 0h7l7 9 5 6 5 4 2 5 6 4v2l8 4v2l5 2 8 5v2l-9 4-31 9-16 8-9 7-4 2-2 4-13 13-2-1v-2h-2l-6-8 1-2 12-12 1-2h2v2h15l12-7 12-5 9-2 1-2-4-1h2v-2h-2v-2l2-2 4-13-1-3 2-1-4-3-2-5-8-7-5-7-9-1h-9l-13 3-7 3-6 6h-2l-1 4h-2l2-5 8-9 13-5h11z" fill="#428095"/>
<path transform="translate(1105,991)" d="m0 0h1l1 6v148l1 63v155l-1 29-3 8-3 1-1 4-5 5-4 2-1 3h-5v-2l8-4 8-13 3-8v-243l1-89z" fill="#26363C"/>
<path transform="translate(810,917)" d="m0 0 4 5 6 9 9 7 7 3h6l3-2-2 4h-9l-3-1v2l9 1-4 2-2-1v2l3 1-1 2h-4l-1 3h3v2l-6 3 3 3-5-1-9-5-11-7-9-7-7-10 2-2 3 1 3 8 4 3 1-2-3-1-3-2v-6l3-6v-6l5-1 4 2z" fill="#EDC653"/>
<path transform="translate(313,959)" d="m0 0 3 1-9 4-4 4-1 12 2 6v77l-2 3h-16l-3-1 1-3-4-8v-6l5 2 5-3 3-8 3-19 1-7 3-13 1-13-1-3v-13l2-7 5-3z" fill="#428095"/>
<path transform="translate(539,778)" d="m0 0 5 2 4 4v2l4 2 1 3-7 8-2 3-7 25-3 10-2 10-1 2h-5v-14l3-25 4-16 4-14z" fill="#428095"/>
<path transform="translate(694,840)" d="m0 0 49 1v15h-50v-15z" fill="#EFD05F"/>
<path transform="translate(505,901)" d="m0 0 2 2 3 6 8 13 1 5h2l4 7v17l-1 7-5-2v-2l-5-2-4-3-3-1v-2l-5-2-5-6 6 3-1-7-1-2v-8l3-5 1-7 4 1-4-9z" fill="#428095"/>
<path transform="translate(400,840)" d="m0 0h45l1 1v15h-46z" fill="#66B9D6"/>
<path transform="translate(1039,840)" d="m0 0 4 1-1 14h-48l-1-3 1-10 1-1z" fill="#EAE5C1"/>
<path transform="translate(1164,813)" d="m0 0h5l4 10 3 10 3 3v8l2 3 1 15 1 3v167l-2 12-4 10-4 1 2-5 3-11 2-8v-162l-1-2-3-21-6-18-6-13z" fill="#26363C"/>
<path transform="translate(853,668)" d="m0 0 4 1 5 6 3 10 1 1 1 31-2 12-3 8-2 4h-2l-1 4-2 2-9 3-4-6v-3l-2-1-4-5-3-2v-3l-4-2-5-2v-2l-9-3-2-4-9-1-7-4v-2h-8l-12-2-7-3-9-2-3-3 8 1 32 8 12 4 10 5v2l5 2 11 9 5 5v2h2l3 6v3l6-3 4-5 4-8 2-11v-29l-3-12-6-9z" fill="#26363C"/>
<path transform="translate(1e3 1110)" d="m0 0 2 1v270l-2-4-1-99v-35z" fill="#26363C"/>
<path transform="translate(646,751)" d="m0 0 4 2 4 10 3 8 1 11 3 1 2 17 2 8v79l-1 3-1 13-3 7-2 6-1 6-5 6-1 3h-2l1 3-2 3-3 1-2 5h-2v2h-3v2h-3v2l-3-1 4-5 5-5 6-8 5-10 5-13 2-10 1-1 3-29v-41l-3-27-2-9-3-13-4-10-5-14z" fill="#27363C"/>
<path transform="translate(360,883)" d="m0 0 1 3-1 6h1l1 14 2-2v5l-3 7-4 10-6 11-5 6-7 5-1-2 2-1-2-1 1-5 6-13 13-37z" fill="#59ABC9"/>
<path transform="translate(746,917)" d="m0 0h1v10h2v3h3v3h2l1 4 2-4 4 9v4h-2l2 8 5 11 5 9-3-1-2-3v-3h-2l-2-5-3-1-1 2-5-2-3-7-7-3-2-5 1-8 1-19z" fill="#F1C953"/>
<path transform="translate(610,959)" d="m0 0h4l-2 4h-2v2l-9 3-5 2-1 10 1 3h5v2h2v6l-1 2-1 11v17h1v26l1 9-3 6-4 5-14 1-8-1-1-4 5 1h11l9-3v-72l-6-5-1-3v-10l3-5 12-6z" fill="#27363C"/>
<path transform="translate(692,1073)" d="m0 0h4l3 5 1 9 1 4-1 19h-1v-8h-8l-3 1-4 4-1 4-2 26h-1v-20l2-24 1-4 4-1v-5l3-1 1-8z" fill="#F3CA51"/>
<path transform="translate(833,783)" d="m0 0 1 4-5 13-4 34v12l1 23 4 19 5 12 6 9 5 6v2h2l1 3v12l-4 7-3 3h-6l-7-3v-1l16-1v-17l-2-5-3-2v-2h-2l-4-5v-3h-2l-2-10h-2l-3-12v-6l-2-1-1-6v-43l1-11 2-6 3-12 3-10h2z" fill="#27363C"/>
<path transform="translate(806,771)" d="m0 0 2 1v7l-2 4-3 9-2 11-3 10v45l2 17 1 1 2 12v8h2l1 7h2l2 6v6l-4-5-8-23-2-12-2-15v-40l2-10 3-16z" fill="#27363C"/>
<path transform="translate(320,718)" d="m0 0m-1 1m-22 1h2v2h15l4-1-1 3-7 6h-2l-2 4-13 13-2-1v-2h-2l-6-8 1-2 12-12z" fill="#428196"/>
<path transform="translate(543,671)" d="m0 0 6 3-2 5-8 3-6 1v3l-3 2h-17l-3-2h-2v-2l3-2-2-1 1-4h-13l-3-2 34 1 7-2 1-1h7z" fill="#5AADCB"/>
<path transform="translate(284,890)" d="m0 0 2 1v2h2l2 4 5-1 6-5h2l1 7 2-1 1-5h1v7l-1 3-5 4-2-2-5 6-4 1-1-2-4 3h-3l-3-5 1-13z" fill="#62BDE0"/>
<path transform="translate(784,573)" d="m0 0 5 1 1 2v8h2l2 9v23l-2 10h-2v7l-3 3-4 9-3 3-2 6h-2l-1 4-6 1-1 5-4 1-1 3h-6l18-18 1-2h2l2-5 5-10 3-7 3-21-3-21z" fill="#27363C"/>
<path transform="translate(944,709)" d="m0 0h3l-2 6-2 1-13 1-8 4-9 9h-3l-3 6-7 5-2 9-2 1h-7l-2-2 4-4 4-6 4-5 5-2v-2l4-3h2l1-3 7-4h2v-2l13-6z" fill="#26363C"/>
<path transform="translate(539,778)" d="m0 0 5 2 4 4v2l4 2 1 3-10 7-4 4-5 8h-2l3-23 3-8z" fill="#57A7C4"/>
<path transform="translate(658,688)" d="m0 0 7 1 3 3 6 3 1 6-5 2-13 6-5 1h-8v3l-9 4-11 2-3 3-7 4-5 4h-5l5-5 5-4 4-1v-2l20-8 12-3 8-3 13-5-5-5-8-5z" fill="#27363C"/>
<path transform="translate(604,792)" d="m0 0 2 1 2 9 2 7 1 6 2 14v36l-2 13-2 12-3 6h-3l2-10 4-14 1-8v-23l-2-20-4-21z" fill="#27363C"/>
<path transform="translate(838,777)" d="m0 0 7 6 7 10 6 10 6 12 6 19h-2l-4-10-4-5-3-8-5-8-4-7-5-6-2 1-7-5 1-4z" fill="#B2AD85"/>
<path transform="translate(408,1080)" d="m0 0h3v2h-2v3h-2l-1 6-7 4-9 3-5 2v9h-1v-15l2-5 6-4 1-2h2v-2l9 1h3z" fill="#5AADCA"/>
<path transform="translate(1100,711)" d="m0 0 9 2 15 8 11 9 8 7 4 5 1 3 6-1 2-4 6-9h1v7h-2v2h-2l-2 5h-2v2l-5 2v-2h-5l-1-3h-2l-1-4-4-2v-2h-2l-2-3v-3l-5-1-6-3-2-3-7-2-7-5-5-1z" fill="#26363C"/>
<path transform="translate(594,986)" d="m0 0 4 2 1 1v69l-1 3-9 4h-6l1-2-4-7v-3l16-1 1-32 1-30-3-1z" fill="#B79543"/>
<path transform="translate(755,668)" d="m0 0 3 1-1 4-15 5-4 2h-11v2h-15l-15-2-4-2v-2l-7-1v-3l20 5 8 1h10l10-2 13-4z" fill="#27363C"/>
<path transform="translate(653,914)" d="m0 0 1 3-4 9-6 10-6 7-9 7-1-3 3-5h2l3-9 4-10 2 4 2 1 1-5h3v-6z" fill="#E5C051"/>
<path transform="translate(1088,584)" d="m0 0 3 1 2 3 2 17-1 1-1 17-1 3h-2l-2 9-1 7-4 1-2 4-2 5h-2v2l-8 8-1-3 6-7h2l2-5 1-2h2l1-5 5-10 2-8 1-9v-17z" fill="#26363C"/>
<path transform="translate(747,785)" d="m0 0h1v10l-1 9v12l-20 1h-32l-2-2 1-1h50v-9z" fill="#27363C"/>
<path transform="translate(600,1210)" d="m0 0 3 3v57l-1 20h-1l-1-33z" fill="#2A3E46"/>
<path transform="translate(504,904)" d="m0 0h2l3 9h-3l-1 6-3 5-1 7-2-2-4-20 1-2h3l2-2z" fill="#5BAECC"/>
<path transform="translate(364,789)" d="m0 0 2 2 3 19 1 3 1 16v43l-1 12-5 20h-1l1-8 2-15 1-1 1-17v-19l-1-25-1-2-3-24z" fill="#428095"/>
<path transform="translate(602,896)" d="m0 0h1v7l-3 1v6l-3 3h-2l-5 10v9l3 7 7 1 2 1-1 1h-8l-4-2-3-10v-9l3-5h2l2-5 6-9z" fill="#27363C"/>
<path transform="translate(765,734)" d="m0 0h1v6l-2 1v9l-4 3-6 18-1 9-3 5h-2l2-11 9-29 5-10z" fill="#27363C"/>
<path transform="translate(697,879)" d="m0 0h32l12 1 3 1v2h-50l1-3z" fill="#27363C"/>
<path transform="translate(757,746)" d="m0 0h2l-3 12-5 16-3 11h-1l-1-6 1-14h3l1-9 2-4 1-5z" fill="#E2BB4C"/>
<path transform="translate(689,893)" d="m0 0h3l-1 10-7 21-5 12-2 1v-6l4-11 1-3h3v-7l2-7v-8h2z" fill="#27363C"/>
<path transform="translate(910,813)" d="m0 0 3 3 1 3v43l-1 5h-2v-9l1-13z" fill="#26363C"/>
<path transform="translate(1135,778)" d="m0 0 2 1-5 12-4 17-2 6h-2l-1-4 4-16 4-13 3-1z" fill="#26363C"/>
<path transform="translate(601,1158)" d="m0 0h1l1 11v32l-1 8h-2v-42z" fill="#27363C"/>
<path transform="translate(863,948)" d="m0 0h1l1 72 1 2v9h-2l-1 4z" fill="#F3CA51"/>
<path transform="translate(689,744)" d="m0 0m-10 1h10v2l-6 2 1 4 2 4v14l-2-3-6-19-1-3z" fill="#E4BC4C"/>
<path transform="translate(398,744)" d="m0 0 5 1-1 3-10 1-4 1-1 7 3 7v5l-2-4-5-14v-4z" fill="#529EB9"/>
<path transform="translate(654,800)" d="m0 0 2 1 2 5v25l-1 10h-1l-1-20-1-3-1-15z" fill="#F3CA51"/>
<path transform="translate(306,656)" d="m0 0h7l1 3-13 3-7 3-6 6h-2l-1 4h-2l2-5 8-9z" fill="#509BB5"/>
<path transform="translate(771,828)" d="m0 0 2 3 1 20v24l-2-1-1-16z" fill="#26363C"/>
<path transform="translate(600,1353)" d="m0 0h2l1 3v30l-3 1z" fill="#26363C"/>
<path transform="translate(715,1073)" d="m0 0h7l9 7 4 8 1 7-2 3-2-9-1-6h-2l-2-5h-4v-2l-8-1v2l-5 4-4-1 2-1v-2h2v-2z" fill="#26363C"/>
<path transform="translate(594,986)" d="m0 0 4 2 1 1v69h-1l-2-16 2-52-3-1z" fill="#B4AE85"/>
<path transform="translate(576,931)" d="m0 0 2 2-1 5h-2v11l-1 5h-2v5h-1v-23h2l2-4z" fill="#F3CA51"/>
<path transform="translate(954,918)" d="m0 0 1 3-2 7h-2l-3 9-6 1-1 5-5 2v-3h2l2-4 6-8h2l2-6z" fill="#26363C"/>
<path transform="translate(939,832)" d="m0 0h2l1 10v18l-1 10-2-1z" fill="#26363C"/>
<path transform="translate(734,724)" d="m0 0h14l8 2 8 4v3l-9-3-16-3-7-1z" fill="#26363C"/>
<path transform="translate(837 1e3)" d="m0 0h1l2 52v10h6l2 1v2h-7l-2-2-2-26z" fill="#AEAB85"/>
<path transform="translate(618,713)" d="m0 0h11l-3 3-5 2h-3v2l-8 5-4 2v-4l2-3h3v-2h2v-2l4-1z" fill="#E3C45C"/>
<path transform="translate(855,880)" d="m0 0h1l3 22 3 14v10h-1l-4-15-2-18z" fill="#F3CA51"/>
<path transform="translate(685,771)" d="m0 0h1l3 14v7h2l2 21h-2l-2-13-2-5-2-12z" fill="#27363C"/>
<path transform="translate(1116,750)" d="m0 0 1 4v9l-1 2h-2l-2 4-5 3 3-9 5-12z" fill="#26363C"/>
<path transform="translate(1164,688)" d="m0 0h3v28l-1 12-2 2-1-4 1-14z" fill="#26363C"/>
<path transform="translate(705,743)" d="m0 0h26l13 2v1h-17l-26-1z" fill="#F3CA51"/>
<path transform="translate(659,875)" d="m0 0 3 1v12l-1 8-2 6-2 8h-1v-10l2-10z" fill="#E4C055"/>
<path transform="translate(675,745)" d="m0 0 4 4 6 19v3h-3l-5-12v-8h-2z" fill="#27363C"/>
<path transform="translate(616,675)" d="m0 0h27l2 1-1 4v-2h-27l-11 1-3 1v-3l12-1z" fill="#EBE7C3"/>
<path transform="translate(893,688)" d="m0 0h2l1 11-1 25-1 6h-1z" fill="#27363C"/>
<path transform="translate(646,751)" d="m0 0 4 2 4 10 3 8v7l-3-2-6-18z" fill="#27373E"/>
<path transform="translate(602,731)" d="m0 0h1v6l-10 9-3 4h-3v-2h2l1-4 7-9z" fill="#26363C"/>
<path transform="translate(791,668)" d="m0 0h6l-6 7-4 2-2 4-7 6-3 1v-5l6-3h2l2-4 4-1z" fill="#26363C"/>
<path transform="translate(519,589)" d="m0 0h2l1 5v23l-3 1z" fill="#26373E"/>
<path transform="translate(1055,1416)" d="m0 0 10 1h11l9-1-1 2-11 3h-7l-6-2-5-1z" fill="#25363D"/>
<path transform="translate(968,701)" d="m0 0 5 1-1 3-10 2-2 2-12 1v-2l19-6z" fill="#27363C"/>
<path transform="translate(577,1048)" d="m0 0 2 1v2l14-1 4-1-1 4h-16l4 7v3l2 1-4-1-4-8-2-3-1-2h2z" fill="#F3CA51"/>
<path transform="translate(317,834)" d="m0 0h1l1 19-1 14-4 15-2 4 1-10 3-15z" fill="#428095"/>
<path transform="translate(659,958)" d="m0 0h4l-2 4-8 7-7 5h-2l1-5 8-4z" fill="#27363C"/>
<path transform="translate(902,843)" d="m0 0h1l2 13 1 1 1 7v16h-1l-1-7-1-1-2-18z" fill="#27363C"/>
<path transform="translate(837,710)" d="m0 0h1v16l-2 4-6-3-2-4 8-3z" fill="#EAC554"/>
<path transform="translate(996,676)" d="m0 0 27 2 3 1-9 3-17-3-4-2z" fill="#26363C"/>
<path transform="translate(359,916)" d="m0 0 1 4-7 14-7 9-3 1 2-4 7-10 3-8h2z" fill="#428095"/>
<path transform="translate(875,857)" d="m0 0h1l3 24v15h-2l-2-31z" fill="#B4AE85"/>
<path transform="translate(600,1124)" d="m0 0 2 1 1 9-1 23h-1l-1-5z" fill="#27363C"/>
<path transform="translate(412,743)" d="m0 0h16l4 1v2h-29l1-2z" fill="#5BAECC"/>
<path transform="translate(340,793)" d="m0 0 2 4 2 17h-2l-3-8-2-8z" fill="#25363D"/>
<path transform="translate(774,889)" d="m0 0 2 2 1 7 2 6 3 13-3-1-4-13z" fill="#27373D"/>
<path transform="translate(1095,864)" d="m0 0 3 4 2 7-1 5 2 6v6h-2l-4-22z" fill="#26363C"/>
<path transform="translate(814,751)" d="m0 0 3 1-1 9-3 4h-3v5h-3l4-12z" fill="#27363C"/>
<path transform="translate(658,795)" d="m0 0 3 4 2 19v8h-1l-1-13h-2z" fill="#DBB750"/>
<path transform="translate(1121,958)" d="m0 0h2v2l8 2 5 3-4 2-11-3z" fill="#26363C"/>
<path transform="translate(745,783)" d="m0 0 2 2-1 11-1 9h-1l-2-6v-8z" fill="#E4BE4F"/>
<path transform="translate(960,957)" d="m0 0 2 1-7 8-4 3h-2v2l-3 1v-4l6-5h3l2-5z" fill="#26363C"/>
<path transform="translate(1153,792)" d="m0 0 3 1 2 3v3h2l3 3v8h-2l-3-7v-3h-2l-3-5z" fill="#26363C"/>
<path transform="translate(596,701)" d="m0 0 3 1v2l3 1 1 8h-2v-4l-1 1v5l-3-1v-6l-1-1z" fill="#F8D65C"/>
<path transform="translate(509,655)" d="m0 0 25 1 5 1v1h-30l-3 1 1-3z" fill="#4C94AD"/>
<path transform="translate(1134,984)" d="m0 0 1 3v23h-2l-1-21-1-2z" fill="#27363C"/>
<path transform="translate(483,772)" d="m0 0h1l-1 18-1 5h-2l-2 2 1-10z" fill="#5397AC"/>
<path transform="translate(843,776)" d="m0 0 3 3v2h2v4l3 1v6l-4-5-8-9z" fill="#26363C"/>
<path transform="translate(573,687)" d="m0 0 1 4v30l1 2v7h-1l-2-6v-36z" fill="#A5A67F"/>
<path transform="translate(305,902)" d="m0 0 1 3h-2l-2 5-5 5-3 2 2-4 3-9h3z" fill="#4F98B2"/>
<path transform="translate(645,676)" d="m0 0 5 1 9 9-2 2-5-3-5-5z" fill="#27363C"/>
<path transform="translate(676,937)" d="m0 0 1 2-4 7h-2l-1 4-5 7h-1l1-7 3-2 2-5 4-1 1-4z" fill="#27363C"/>
<path transform="translate(837,903)" d="m0 0 2 1v2h2v2l5 2v3h2l2 4v13h-1l-1-13h-2l-9-12z" fill="#CDC7A0"/>
<path transform="translate(953,1417)" d="m0 0h20v2h-7v2l-13-1-3-2z" fill="#26363C"/>
<path transform="translate(792,930)" d="m0 0 3 1 3 8 6 5-1 2-6-4-7-10z" fill="#D0B663"/>
<path transform="translate(664,693)" d="m0 0 5 2 3 4-10 5-4-1 3-2h3v-2h2z" fill="#B89B50"/>
<path transform="translate(497,827)" d="m0 0 2 3v35h-2l-1-36z" fill="#4D95AE"/>
<path transform="translate(686,771)" d="m0 0h2l3 9v12h-2l-3-16z" fill="#DFB84A"/>
<path transform="translate(287,720)" d="m0 0 3 1-6 5-1 8-4-4-1-5 4-1z" fill="#519CB6"/>
<path transform="translate(1079,564)" d="m0 0h5l1 5-1 2 2 1 3 7-2 2-6-12v-3h-2z" fill="#26363C"/>
<path transform="translate(1058,543)" d="m0 0 7 1 5 5-2 4-8-7-2-1z" fill="#26363C"/>
<path transform="translate(1059,700)" d="m0 0 11 1 9 3v1h-9l-10-2z" fill="#26363C"/>
<path transform="translate(996,1395)" d="m0 0h1v6l-2 2h-3l-2 6-3 2-3-1 5-5 6-8z" fill="#27363C"/>
<path transform="translate(1058,729)" d="m0 0 7 2 1 5h-2l1 4-4 7-1-3 4-11-6-2z" fill="#25363D"/>
<path transform="translate(1085,677)" d="m0 0 2 3-3 3h-2v2l-6 3v-5l8-5z" fill="#26363C"/>
<path transform="translate(336,776)" d="m0 0 1 2h2l3 12-2 3-3-8z" fill="#5D9EB1"/>
<path transform="translate(350,533)" d="m0 0m-2 1 2 1 2 4h-2l-4 4-2-1-1 2v-5z" fill="#304044"/>
<path transform="translate(834,963)" d="m0 0 4 1 6 6 1 4v7l-2 3-1-12-5-6z" fill="#B5A56D"/>
<path transform="translate(1074,686)" d="m0 0 1 3-10 6-6 2 1-4 4 1v-2l4-2 3-2h3z" fill="#27363C"/>
<path transform="translate(293,661)" d="m0 0 2 1-3 5-4 4h-2l-1 4h-2l2-5z" fill="#53A1BD"/>
<path transform="translate(969,945)" d="m0 0 3 1-4 5-5 6-2-1 1-4 5-5z" fill="#25363D"/>
<path transform="translate(965,869)" d="m0 0h1v11l-3 10-1-4 2-14z" fill="#25363D"/>
<path transform="translate(772,809)" d="m0 0 2 1v11l-2 5-1-4v-8z" fill="#27363C"/>
<path transform="translate(743,800)" d="m0 0h1v8l-1 5h-3v-12z" fill="#F3CA51"/>
<path transform="translate(314,658)" d="m0 0h9l9 1v1l-6 1h-11z" fill="#5BAECC"/>
<path transform="translate(282,957)" d="m0 0h4l1 6-2 3-4-3v-5z" fill="#62BEE1"/>
<path transform="translate(762,692)" d="m0 0h5v2l-8 4h-3l2-5z" fill="#27363C"/>
<path transform="translate(1079,705)" d="m0 0 8 1 7 2-1 2-14-2z" fill="#27363C"/>
<path transform="translate(1012,1074)" d="m0 0h6l-1 2-5 2h-3l-1 4-4 1 4-6z" fill="#26363C"/>
<path transform="translate(1137,965)" d="m0 0 4 1 5 3 1 6-2 5h-1l-2-11z" fill="#99A388"/>
<path transform="translate(468,935)" d="m0 0 4 2 1 4-1 2-4-1-2-4z" fill="#27363C"/>
<path transform="translate(813,922)" d="m0 0 2 1 4 7 8 7-4 1-9-11z" fill="#ADAB85"/>
<path transform="translate(1032,724)" d="m0 0h13l3 2-1 1h-8l-7-2z" fill="#26363C"/>
<path transform="translate(1063,663)" d="m0 0 3 1-1 4h-6v2l-4 1-1-2 4-1v-2z" fill="#26363C"/>
<path transform="translate(263,760)" d="m0 0 2 1 1 8-2 7-2 1z" fill="#26363C"/>
<path transform="translate(340,973)" d="m0 0h2v2l2 1-2 5-3-1-1-1v-5z" fill="#27363C"/>
<path transform="translate(585,921)" d="m0 0h1l2 17h-4z" fill="#D7B24B"/>
<path transform="translate(691,792)" d="m0 0h2l1 5v13l-2-1z" fill="#E4BD4E"/>
<path transform="translate(648,758)" d="m0 0 2 2 3 11-5-1 1-8-2-1z" fill="#D9B147"/>
<path transform="translate(779,906)" d="m0 0 1 2h2l2 3v5l1 1v5l-3-4-3-9z" fill="#D7B34E"/>
<path transform="translate(838,779)" d="m0 0 4 1 3 3v4l-4-2-3-3z" fill="#E4DFB9"/>
<path transform="translate(1070,552)" d="m0 0 6 3 2 4 1 5-5-5-4-5z" fill="#26363C"/>
<path transform="translate(599,730)" d="m0 0 4 1-6 5-5 5 1-5 1-2 5-2z" fill="#BAB081"/>
<path transform="translate(1054,925)" d="m0 0h2v2h3v8l-4-4z" fill="#27363C"/>
<path transform="translate(1074,891)" d="m0 0 2 1 2 11-1 4-3-5z" fill="#26363C"/>
<path transform="translate(336,549)" d="m0 0 3 4-2 4-3 1-2-2 1-3 2-2z" fill="#314347"/>
<path transform="translate(591,967)" d="m0 0 1 4-1 10-2-1v-11z" fill="#B69C56"/>
<path transform="translate(1063,941)" d="m0 0h2v2l2 1 1 6h-3l-3-5z" fill="#26363C"/>
<path transform="translate(645,678)" d="m0 0 7 5-1 4-1-2h-2v-2l-4-1z" fill="#DAC570"/>
<path transform="translate(349,629)" d="m0 0h2l5 11-2 1-4-6v-3l-2 1z" fill="#25363D"/>
<path transform="translate(1084,969)" d="m0 0h2v2l5 2 2 3-3 1v-2l-5-2-2-3z" fill="#27363C"/>
<path transform="translate(996,723)" d="m0 0 5 1v2l-9 1-3-2z" fill="#25363D"/>
<path transform="translate(1094,1407)" d="m0 0h2l-2 4-3 1-1 3h-5v-2l8-4z" fill="#24363E"/>
<path transform="translate(757,746)" d="m0 0h2l-3 12h-1v-7l-1-4z" fill="#D3AC45"/>
<path transform="translate(1121,629)" d="m0 0h12l-2 1v3h-3v-2l-7-1z" fill="#2B3A40"/>
<path transform="translate(519,607)" d="m0 0 2 1 1 9-3 1z" fill="#27383F"/>
</svg>
